<svg xmlns="http://www.w3.org/2000/svg" viewBox="0 0 512 512" style="height: 512px; width: 512px;"><defs><clipPath id="icon-bg"><polygon points="457.78,372.5,256,489,54.22,372.5,54.22,139.5,256,23,457.78,139.5" fill="#000" fill-opacity="1" stroke="#e74a45" stroke-opacity="1" stroke-width="23" transform="translate(-51.2, -51.2) scale(1.2, 1.2) rotate(0, 256, 256) skewX(0) skewY(0)"></polygon></clipPath></defs><polygon points="457.78,372.5,256,489,54.22,372.5,54.22,139.5,256,23,457.78,139.5" fill="#000" fill-opacity="1" stroke="#e74a45" stroke-opacity="1" stroke-width="23"></polygon><g class="" transform="translate(0,0)" style=""><g clip-path="url(#icon-bg)" transform="translate(51.2, 51.2) scale(0.8, 0.8) rotate(0, 256, 256) skewX(0) skewY(0)"><path d="M256 25.162C255.555 25.327 254.658 25.66 253.494 26.402C251.401 27.736 248.572 30.017 245.492 32.982C239.332 38.914 232.096 47.558 225.372 57.162C224.108 58.978 222.878 60.817 221.682 62.678C233.465 60.352 244.735 59.178 256 59.178C267.265 59.178 278.535 60.352 290.318 62.678C289.122 60.817 287.892 58.978 286.628 57.162C279.904 47.558 272.668 38.914 266.508 32.982C263.428 30.017 260.598 27.736 258.506 26.402C257.72 25.896 256.879 25.48 256 25.162Z" class="" fill="#f5a623" fill-opacity="1"></path><path d="M256 76.824C241.315 76.824 226.62 79.204 209.78 83.938C204.42 95.194 201 105.57 201 112L201 271.64C206.106 254.373 210.62 233.405 215 207.236L215 192C215 181 219.557 168.58 226.283 157.37C229.646 151.764 233.593 146.577 238.355 142.45C243.118 138.32 249 135 256 135C263 135 268.882 138.322 273.645 142.45C278.407 146.577 282.355 151.764 285.717 157.37C292.443 168.58 297 181 297 192L297 207.236C301.38 233.406 305.894 254.373 311 271.639L311 112C311 105.57 307.58 95.194 302.22 83.937C285.38 79.203 270.685 76.824 256 76.824Z" class="" fill="#f5a623" fill-opacity="1"></path><path d="M168 129.384C161.487 140.901 153 158.736 153 176L153 215L183 215L183 176C183 158.736 174.513 140.9 168 129.385Z" class="" fill="#f5a623" fill-opacity="1"></path><path d="M344 129.384C337.487 140.901 329 158.736 329 176L329 215L359 215L359 176C359 158.736 350.513 140.9 344 129.385Z" class="" fill="#f5a623" fill-opacity="1"></path><path d="M256 153C255 153 252.882 153.678 250.145 156.05C247.407 158.423 244.355 162.236 241.717 166.63C236.443 175.42 233 187 233 192L233 355.78L230.303 358.424C219.693 368.832 217.473 394.564 217.153 411.194C223.827 414.729 234.979 417.611 247 418.614L247 368L265 368L265 418.613C277.023 417.609 288.178 414.728 294.852 411.191C294.544 394.605 292.392 369.119 281.637 358.364L279 355.73L279 192C279 187 275.557 175.42 270.283 166.63C267.646 162.236 264.593 158.423 261.855 156.05C259.118 153.68 257 153 256 153Z" class="" fill="#fff" fill-opacity="1"></path><path d="M240 183L272 183L272 201L240 201L240 183Z" class="" fill="#4a4a4a" fill-opacity="1"></path><path d="M153 233L153 349.316C165.42 338.672 174.995 327.996 183 314.626L183 233L153 233Z" class="" fill="#f5a623" fill-opacity="1"></path><path d="M329 233L329 314.627C337.005 327.995 346.58 338.672 359 349.317L359 233L329 233Z" class="" fill="#f5a623" fill-opacity="1"></path><path d="M215 286.975C211.487 297.375 207.658 306.72 203.303 315.15C193.998 333.16 182.396 347.154 167.846 360.182L206.521 362.115C208.681 357.267 211.443 352.657 215.001 348.531L215.001 286.976Z" class="" fill="#fff" fill-opacity="1"></path><path d="M297 286.975L297 348.575C300.515 352.705 303.253 357.3 305.4 362.119L344.154 360.181C329.604 347.153 318.002 333.158 308.697 315.149C304.342 306.719 300.513 297.374 297 286.974Z" class="" fill="#fff" fill-opacity="1"></path><path d="M494 303.015C480.453 308.665 474.975 322.575 467.05 344.845C467.05 344.845 421.236 345.265 413.674 362.402C405.594 380.712 438.256 417.186 438.256 417.186C438.256 417.186 411.124 408.46 400.33 415.078C388.347 422.426 383.318 453.664 383.318 453.664C379.785 452.817 376.418 452.117 373.178 451.531L362.666 420L373.334 420L367.342 409.043L313.828 411.719L313.012 413.222C313.007 414.136 313 415.176 313 415.999L313 419.999L320 419.999L309.334 451.999L330.666 435.999L335.67 451.007C320.885 454.143 310.124 461.7 299.77 471.54L288 448L304 448L291.197 432.393C280.517 435.733 268.283 437 256 437C243.688 437 231.424 435.728 220.727 432.37L208 448L224 448L211.11 473.78C198.973 468.754 186.09 463.75 173.508 459.475L181.334 436L202.666 452L192 420L199 420L199 416C199 415.193 198.992 414.168 198.986 413.27L198.136 411.717L144.616 409.041L138.666 420.001L149.334 420.001L139.379 449.861C135.389 449.045 131.576 448.411 127.999 448.001C96.433 444.378 88.279 452.635 70.067 460.417C70.067 460.417 86.731 363.842 53.377 342.037C49.249 339.337 44.094 338.254 38.384 338.307C32.054 338.363 25.042 339.833 17.999 342.04L17.999 494L254.999 494L255.999 496L271.999 464L295.487 475.744C289.925 481.369 284.33 487.564 278.132 494L494 494L494 303.014Z" class="" fill="#fecc39" fill-opacity="1"></path><path d="M147.02 377.16C141.624 382.037 140.123 386.785 140.203 388.715C140.249 389.809 140.441 389.965 140.711 390.205C140.981 390.447 141.728 390.998 144.001 390.998L144.226 390.998L199.421 393.758C199.737 389.285 200.267 384.595 201.153 379.868L147.021 377.16Z" class="" fill="#e74a45" fill-opacity="1"></path><path d="M364.98 377.16L310.793 379.87C311.689 384.6 312.23 389.288 312.555 393.76L367.775 390.998L368 390.998C370.273 390.998 371.02 390.448 371.29 390.205C371.56 389.965 371.75 389.809 371.797 388.715C371.877 386.785 370.377 382.037 364.98 377.16Z" class="" fill="#e74a45" fill-opacity="1"></path><path d="M160 436L167.12 457.365C158.01 454.432 149.18 451.961 141.045 450.217L160 436Z" class="" fill="#fecc39" fill-opacity="1"></path><path d="M352 436L372.547 451.41C363.072 449.736 354.832 449.182 347.49 449.53L352 436Z" class="selected" fill="#fecc39" fill-opacity="1"></path><path d="M240 464L254.545 493.09C244.669 488.415 231.252 482.26 216.189 475.904L240 464Z" class="" fill="#fecc39" fill-opacity="1"></path></g></g></svg>