<?xml version="1.0" encoding="UTF-8" standalone="no"?>
<svg
   xmlns:dc="http://purl.org/dc/elements/1.1/"
   xmlns:cc="http://creativecommons.org/ns#"
   xmlns:rdf="http://www.w3.org/1999/02/22-rdf-syntax-ns#"
   xmlns:svg="http://www.w3.org/2000/svg"
   xmlns="http://www.w3.org/2000/svg"
   xmlns:xlink="http://www.w3.org/1999/xlink"
   xmlns:sodipodi="http://sodipodi.sourceforge.net/DTD/sodipodi-0.dtd"
   xmlns:inkscape="http://www.inkscape.org/namespaces/inkscape"
   version="1.1"
   id="Layer_1"
   x="0px"
   y="0px"
   width="480"
   height="480"
   viewBox="0 0 480 480"
   enable-background="new 0 0 640 480"
   xml:space="preserve"
   sodipodi:docname="gdx-liftoff.svg"
   inkscape:version="1.0.2-2 (e86c870879, 2021-01-15)"><metadata
   id="metadata933"><rdf:RDF><cc:Work
       rdf:about=""><dc:format>image/svg+xml</dc:format><dc:type
         rdf:resource="http://purl.org/dc/dcmitype/StillImage" /><dc:title></dc:title></cc:Work></rdf:RDF></metadata><defs
   id="defs931" /><sodipodi:namedview
   pagecolor="#ffffff"
   bordercolor="#666666"
   borderopacity="1"
   objecttolerance="10"
   gridtolerance="10"
   guidetolerance="10"
   inkscape:pageopacity="0"
   inkscape:pageshadow="2"
   inkscape:window-width="1920"
   inkscape:window-height="996"
   id="namedview929"
   showgrid="false"
   inkscape:zoom="1.7270833"
   inkscape:cx="320"
   inkscape:cy="245.2111"
   inkscape:window-x="-8"
   inkscape:window-y="-8"
   inkscape:window-maximized="1"
   inkscape:current-layer="Layer_1" />
<polygon
   stroke="#e74a45"
   stroke-width="25"
   points="132.453,131.719 320,23.438 507.547,131.719 507.547,348.281 320,456.563 132.453,348.281 "
   id="polygon880"
   transform="translate(-78.745476,1.7370326)" />
<g
   id="g924"
   transform="translate(-78.745476,1.7370326)">
	<g
   id="g922">
		<defs
   id="defs883">
			<polygon
   id="SVGID_1_"
   points="139.955,136.05 320,32.1 500.045,136.05 500.045,343.95 320,447.9 139.955,343.95 " />
		</defs>
		<clipPath
   id="SVGID_2_">
			<use
   xlink:href="#SVGID_1_"
   overflow="visible"
   id="use885"
   x="0"
   y="0"
   width="100%"
   height="100%" />
		</clipPath>
		<g
   transform="matrix(0.8,0,0,0.8,51.2,51.2)"
   clip-path="url(#SVGID_2_)"
   id="g920">
			<path
   fill="#f5a623"
   d="m 336,19.589 c -0.417,0.154 -1.258,0.467 -2.349,1.162 -1.962,1.251 -4.614,3.389 -7.502,6.169 -5.775,5.562 -12.559,13.665 -18.863,22.669 -1.185,1.702 -2.338,3.427 -3.459,5.171 11.046,-2.18 21.612,-3.281 32.173,-3.281 10.562,0 21.127,1.101 32.173,3.281 -1.121,-1.744 -2.274,-3.469 -3.459,-5.171 -6.304,-9.004 -13.087,-17.108 -18.862,-22.669 -2.888,-2.78 -5.54,-4.918 -7.502,-6.169 -0.737,-0.474 -1.526,-0.864 -2.35,-1.162 z"
   id="path888" />
			<path
   fill="#f5a623"
   d="m 336,68.023 c -13.767,0 -27.544,2.231 -43.331,6.669 -5.025,10.552 -8.231,20.28 -8.231,26.308 v 149.663 c 4.787,-16.188 9.019,-35.846 13.125,-60.38 V 176 c 0,-10.313 4.272,-21.956 10.578,-32.466 3.152,-5.256 6.853,-10.118 11.317,-13.987 4.465,-3.871 9.98,-6.984 16.542,-6.984 6.562,0 12.078,3.115 16.543,6.984 4.463,3.869 8.164,8.732 11.316,13.987 6.306,10.51 10.579,22.153 10.579,32.466 v 14.283 c 4.106,24.535 8.337,44.191 13.125,60.377 V 101 c 0,-6.028 -3.206,-15.756 -8.231,-26.309 C 363.544,70.253 349.767,68.023 336,68.023 Z"
   id="path890" />
			<path
   fill="#f5a623"
   d="m 253.5,117.298 c -6.106,10.797 -14.063,27.517 -14.063,43.702 v 36.563 h 28.125 V 161 c 0,-16.185 -7.956,-32.907 -14.062,-43.702 z"
   id="path892" />
			<path
   fill="#f5a623"
   d="m 418.5,117.298 c -6.106,10.797 -14.063,27.517 -14.063,43.702 v 36.563 h 28.125 V 161 c 0,-16.185 -7.956,-32.907 -14.062,-43.702 z"
   id="path894" />
			<path
   fill="#ffffff"
   d="m 336,139.437 c -0.938,0 -2.923,0.635 -5.489,2.859 -2.567,2.225 -5.428,5.799 -7.902,9.919 -4.944,8.24 -8.172,19.097 -8.172,23.784 v 153.544 l -2.529,2.479 c -9.947,9.757 -12.028,33.881 -12.328,49.471 6.257,3.314 16.712,6.016 27.982,6.957 V 341 h 16.875 v 47.45 c 11.272,-0.941 21.729,-3.643 27.986,-6.958 -0.288,-15.549 -2.306,-39.443 -12.389,-49.525 l -2.472,-2.469 V 176 c 0,-4.688 -3.228,-15.544 -8.171,-23.784 -2.473,-4.12 -5.334,-7.694 -7.903,-9.919 -2.566,-2.222 -4.551,-2.86 -5.488,-2.86 z"
   id="path896" />
			<path
   fill="#822825"
   d="m 321,167.562 h 30 v 16.875 h -30 z"
   id="path898" />
			<path
   fill="#f5a623"
   d="m 239.437,214.437 v 109.047 c 11.644,-9.979 20.62,-19.988 28.125,-32.522 v -76.525 z"
   id="path900" />
			<path
   fill="#f5a623"
   d="m 404.437,214.437 v 76.526 c 7.505,12.532 16.482,22.542 28.125,32.521 V 214.437 Z"
   id="path902" />
			<path
   fill="#ffffff"
   d="m 297.562,265.039 c -3.293,9.75 -6.883,18.511 -10.966,26.414 -8.723,16.885 -19.6,30.004 -33.241,42.218 l 36.258,1.812 c 2.025,-4.545 4.614,-8.866 7.95,-12.734 V 265.04 Z"
   id="path904" />
			<path
   fill="#ffffff"
   d="m 374.437,265.039 v 57.75 c 3.296,3.871 5.862,8.179 7.875,12.697 l 36.332,-1.816 c -13.64,-12.214 -24.517,-25.333 -33.24,-42.218 -4.084,-7.903 -7.673,-16.664 -10.967,-26.414 z"
   id="path906" />
			<path
   fill="#fecc39"
   d="m 559.125,280.077 c -12.7,5.295 -17.836,18.337 -25.266,39.215 0,0 -42.95,0.394 -50.039,16.46 -7.576,17.166 23.046,51.36 23.046,51.36 0,0 -25.437,-8.181 -35.557,-1.976 -11.234,6.888 -15.948,36.174 -15.948,36.174 -3.312,-0.795 -6.469,-1.45 -9.506,-2 l -9.856,-29.561 h 10.002 l -5.618,-10.272 -50.17,2.509 -0.765,1.409 c -0.004,0.857 -0.011,1.832 -0.011,2.604 v 3.75 H 396 l -10,30 20,-15 4.69,14.07 c -13.86,2.941 -23.949,10.026 -33.655,19.25 L 366,416 h 15 l -12.002,-14.631 c -10.013,3.131 -21.482,4.319 -32.998,4.319 -11.542,0 -23.04,-1.193 -33.068,-4.341 L 291,416 h 15 l -12.084,24.169 c -11.378,-4.712 -23.456,-9.403 -35.252,-13.411 l 7.337,-22.008 19.999,15 -9.999,-30 h 6.563 V 386 c 0,-0.757 -0.007,-1.718 -0.013,-2.56 l -0.797,-1.455 -50.175,-2.51 -5.578,10.276 h 10.001 l -9.333,27.993 c -3.74,-0.764 -7.315,-1.359 -10.669,-1.743 -29.593,-3.397 -37.237,4.344 -54.311,11.639 0,0 15.623,-90.538 -15.647,-110.981 -3.87,-2.531 -8.703,-3.546 -14.056,-3.496 -5.934,0.052 -12.508,1.431 -19.111,3.499 V 459.125 H 335.062 L 336,461 l 15,-30 22.02,11.01 c -5.215,5.273 -10.459,11.082 -16.27,17.115 h 202.375 v -179.05 z"
   id="path908" />
			<path
   fill="#e74a45"
   d="m 233.831,349.588 c -5.059,4.572 -6.466,9.023 -6.391,10.833 0.043,1.025 0.223,1.172 0.476,1.396 0.253,0.227 0.953,0.743 3.085,0.743 h 0.211 l 51.746,2.588 c 0.296,-4.193 0.793,-8.59 1.624,-13.021 z"
   id="path910" />
			<path
   fill="#e74a45"
   d="m 438.169,349.588 -50.801,2.54 c 0.84,4.435 1.346,8.829 1.652,13.022 l 51.769,-2.59 H 441 c 2.131,0 2.831,-0.515 3.085,-0.743 0.253,-0.225 0.431,-0.371 0.475,-1.396 0.075,-1.81 -1.331,-6.262 -6.391,-10.833 z"
   id="path912" />
			<path
   fill="#fecc39"
   d="m 246,404.75 6.675,20.029 c -8.541,-2.749 -16.819,-5.066 -24.445,-6.7 z"
   id="path914" />
			<path
   fill="#fecc39"
   d="m 426,404.75 19.263,14.447 c -8.883,-1.57 -16.608,-2.089 -23.491,-1.763 z"
   id="path916" />
			<path
   fill="#fecc39"
   d="m 321,431 13.636,27.272 c -9.258,-4.382 -21.837,-10.153 -35.959,-16.112 z"
   id="path918" />
		</g>
	</g>
</g>
<polygon
   fill="none"
   stroke="#e74a45"
   stroke-width="25"
   points="132.453,131.719 320,23.437 507.547,131.719 507.547,348.281 320,456.562 132.453,348.281 "
   id="polygon926"
   transform="translate(-78.745476,1.7370326)" />
</svg>
